<?xml version="1.0" encoding="UTF-8"?>
<svg xmlns="http://www.w3.org/2000/svg" xmlns:xlink="http://www.w3.org/1999/xlink" width="14400pt" height="8964.66pt" viewBox="0 0 14400 8964.66">
<path fill-rule="nonzero" fill="rgb(0%, 0%, 0%)" fill-opacity="1" d="M 3283.445312 4653.390625 C 3236.785156 4653.390625 3194.441406 4645.539062 3157.578125 4630.0625 C 3119.421875 4614.035156 3086.929688 4589.84375 3061.015625 4558.160156 C 3012.421875 4498.75 2987.78125 4414.25 2987.78125 4307.007812 L 2987.78125 3977.230469 C 2987.78125 3946.855469 3012.40625 3922.230469 3042.78125 3922.230469 C 3073.15625 3922.230469 3097.777344 3946.855469 3097.777344 3977.230469 L 3097.777344 4307.007812 C 3097.777344 4388.203125 3114.054688 4449.273438 3146.160156 4488.519531 C 3176.359375 4525.445312 3221.269531 4543.394531 3283.445312 4543.394531 C 3345.625 4543.394531 3390.53125 4525.445312 3420.734375 4488.519531 C 3452.839844 4449.273438 3469.117188 4388.203125 3469.117188 4307.007812 L 3469.117188 3977.230469 C 3469.117188 3946.855469 3493.738281 3922.230469 3524.113281 3922.230469 C 3554.488281 3922.230469 3579.113281 3946.855469 3579.113281 3977.230469 L 3579.113281 4307.007812 C 3579.113281 4414.25 3554.472656 4498.75 3505.878906 4558.160156 C 3479.960938 4589.84375 3447.472656 4614.035156 3409.3125 4630.0625 C 3372.453125 4645.539062 3330.105469 4653.390625 3283.445312 4653.390625 "/>
<path fill-rule="nonzero" fill="rgb(0%, 0%, 0%)" fill-opacity="1" d="M 11630.621094 1021.023438 C 11556.507812 1021.023438 11499.941406 1042.394531 11462.496094 1084.546875 C 11423.433594 1128.519531 11403.628906 1195.289062 11403.628906 1283.011719 C 11403.628906 1326.484375 11408.847656 1365.613281 11419.140625 1399.324219 C 11428.855469 1431.152344 11443.140625 1458.179688 11461.597656 1479.664062 C 11499.410156 1523.683594 11556.28125 1546.003906 11630.621094 1546.003906 C 11704.960938 1546.003906 11761.832031 1523.683594 11799.644531 1479.664062 C 11818.101562 1458.179688 11832.386719 1431.152344 11842.101562 1399.324219 C 11852.394531 1365.613281 11857.613281 1326.484375 11857.613281 1283.011719 C 11857.613281 1195.289062 11837.808594 1128.519531 11798.746094 1084.546875 C 11761.300781 1042.394531 11704.734375 1021.023438 11630.621094 1021.023438 M 11630.621094 1656 C 11577.683594 1656 11529.402344 1647.15625 11487.125 1629.71875 C 11444.34375 1612.074219 11407.679688 1585.703125 11378.160156 1551.34375 C 11349.730469 1518.246094 11328.121094 1477.90625 11313.9375 1431.441406 C 11300.464844 1387.316406 11293.632812 1337.375 11293.632812 1283.011719 C 11293.632812 1167.550781 11322.78125 1076.199219 11380.261719 1011.496094 C 11409.921875 978.109375 11446.714844 952.609375 11489.617188 935.699219 C 11531.160156 919.328125 11578.601562 911.027344 11630.621094 911.027344 C 11682.640625 911.027344 11730.082031 919.328125 11771.625 935.699219 C 11814.527344 952.609375 11851.320312 978.109375 11880.980469 1011.496094 C 11938.460938 1076.199219 11967.609375 1167.550781 11967.609375 1283.011719 C 11967.609375 1337.375 11960.777344 1387.316406 11947.304688 1431.441406 C 11933.121094 1477.90625 11911.511719 1518.246094 11883.082031 1551.34375 C 11853.5625 1585.703125 11816.898438 1612.074219 11774.117188 1629.71875 C 11731.839844 1647.15625 11683.558594 1656 11630.621094 1656 "/>
<path fill-rule="nonzero" fill="rgb(0%, 0%, 0%)" fill-opacity="1" d="M 2523.109375 1656 C 2470.171875 1656 2421.890625 1647.15625 2379.613281 1629.71875 C 2336.832031 1612.074219 2300.171875 1585.703125 2270.652344 1551.34375 C 2242.21875 1518.246094 2220.609375 1477.90625 2206.425781 1431.441406 C 2192.953125 1387.316406 2186.125 1337.375 2186.125 1283.011719 C 2186.125 1167.550781 2215.269531 1076.199219 2272.753906 1011.496094 C 2302.410156 978.109375 2339.203125 952.609375 2382.105469 935.699219 C 2423.648438 919.328125 2471.089844 911.027344 2523.109375 911.027344 C 2592.929688 911.027344 2653.925781 925.867188 2704.414062 955.132812 C 2756.0625 985.078125 2795.652344 1029.269531 2822.078125 1086.488281 C 2834.816406 1114.0625 2822.785156 1146.742188 2795.210938 1159.476562 C 2767.636719 1172.214844 2734.957031 1160.183594 2722.21875 1132.609375 C 2705.472656 1096.355469 2680.921875 1068.660156 2649.246094 1050.296875 C 2615.738281 1030.871094 2573.300781 1021.023438 2523.109375 1021.023438 C 2449 1021.023438 2392.433594 1042.394531 2354.984375 1084.546875 C 2315.925781 1128.519531 2296.117188 1195.289062 2296.117188 1283.011719 C 2296.117188 1326.484375 2301.335938 1365.613281 2311.628906 1399.324219 C 2321.34375 1431.152344 2335.628906 1458.179688 2354.085938 1479.664062 C 2391.902344 1523.683594 2448.769531 1546.003906 2523.109375 1546.003906 C 2576.007812 1546.003906 2620.34375 1534.648438 2654.878906 1512.253906 C 2687.316406 1491.222656 2711.867188 1459.777344 2727.851562 1418.796875 C 2738.886719 1390.5 2770.773438 1376.503906 2799.074219 1387.539062 C 2827.371094 1398.578125 2841.367188 1430.464844 2830.328125 1458.765625 C 2780.726562 1585.953125 2671.621094 1656 2523.109375 1656 "/>
<path fill-rule="nonzero" fill="rgb(0%, 0%, 0%)" fill-opacity="1" d="M 1198.113281 5559.082031 C 1180.050781 5559.082031 1162.359375 5550.195312 1151.84375 5533.886719 C 1150.910156 5532.4375 1058.039062 5388.449219 1015.304688 5322.605469 C 1015.28125 5322.570312 1034.726562 5352.570312 1034.703125 5352.535156 C 1030.285156 5345.726562 1015.304688 5322.605469 981.035156 5306.4375 C 953.078125 5293.25 936.722656 5291.898438 912.9375 5273.339844 C 883.902344 5250.683594 868.160156 5212.1875 873.765625 5177.546875 C 878.273438 5149.695312 896.292969 5127.609375 921.964844 5118.476562 C 944.265625 5110.546875 967.867188 5112.050781 990.234375 5122.828125 C 1004.84375 5129.867188 1018.878906 5140.855469 1033.132812 5156.417969 C 1043.171875 5167.371094 1052.914062 5180.132812 1062.632812 5194.03125 C 1064.289062 5192.945312 1065.785156 5191.769531 1067.101562 5190.507812 C 1099.007812 5159.976562 1118.828125 5117.460938 1118.828125 5079.554688 C 1118.828125 5068.535156 1116.703125 5030.078125 1089.394531 4998.007812 C 1063.785156 4967.933594 1023.25 4952.683594 968.917969 4952.683594 L 819.007812 4952.683594 L 819.007812 5503.257812 C 819.007812 5533.484375 794.960938 5558.675781 764.738281 5559.070312 C 734.03125 5559.46875 709.011719 5534.695312 709.011719 5504.074219 L 709.011719 4897.683594 C 709.011719 4867.308594 733.632812 4842.6875 764.007812 4842.6875 L 968.917969 4842.6875 C 1078.589844 4842.6875 1140.511719 4888.375 1173.144531 4926.699219 C 1208.527344 4968.253906 1228.824219 5023.96875 1228.824219 5079.554688 C 1228.820312 5114.519531 1220.355469 5150.992188 1204.339844 5185.03125 C 1189.554688 5216.445312 1168.398438 5245.820312 1143.152344 5269.980469 C 1136.894531 5275.96875 1130.070312 5281.367188 1122.761719 5286.152344 C 1169.117188 5357.734375 1243.445312 5472.972656 1244.28125 5474.265625 C 1260.742188 5499.792969 1253.394531 5533.832031 1227.871094 5550.296875 C 1218.652344 5556.238281 1208.320312 5559.082031 1198.113281 5559.082031 "/>
<path fill-rule="nonzero" fill="rgb(0%, 0%, 0%)" fill-opacity="1" d="M 1198.074219 4646.003906 C 1183.410156 4646.003906 1168.78125 4640.175781 1157.957031 4628.640625 C 1123.238281 4591.644531 956.140625 4392.703125 880.402344 4302.128906 C 859.890625 4277.597656 863.386719 4241.039062 888.171875 4220.832031 C 910.652344 4202.503906 943.3125 4203.792969 964.195312 4223.921875 C 981.546875 4240.644531 1001.195312 4258.394531 1013.253906 4265.511719 C 1049.78125 4287.078125 1067.988281 4275.582031 1075.761719 4270.671875 C 1101.117188 4254.664062 1118.828125 4211.820312 1118.828125 4166.488281 C 1118.828125 4155.464844 1116.703125 4117.011719 1089.394531 4084.941406 C 1063.785156 4054.863281 1023.25 4039.613281 968.917969 4039.613281 L 819.007812 4039.613281 L 819.007812 4590.1875 C 819.007812 4620.414062 794.960938 4645.605469 764.738281 4646 C 734.03125 4646.398438 709.011719 4621.625 709.011719 4591.007812 L 709.011719 3984.617188 C 709.011719 3954.242188 733.632812 3929.617188 764.007812 3929.617188 L 968.917969 3929.617188 C 1078.589844 3929.617188 1140.511719 3975.300781 1173.144531 4013.628906 C 1208.527344 4055.183594 1228.824219 4110.898438 1228.824219 4166.488281 C 1228.820312 4203.554688 1221.574219 4240.425781 1207.863281 4273.113281 C 1191.347656 4312.480469 1165.976562 4343.796875 1134.492188 4363.675781 C 1121.628906 4371.800781 1108.222656 4377.898438 1094.433594 4381.96875 C 1157.625 4459.039062 1218.777344 4532.707031 1238.164062 4553.371094 C 1258.949219 4575.519531 1257.847656 4610.324219 1235.695312 4631.109375 C 1225.082031 4641.070312 1211.5625 4646.003906 1198.074219 4646.003906 "/>
<path fill-rule="nonzero" fill="rgb(0%, 0%, 0%)" fill-opacity="1" d="M 13150.703125 1036.167969 C 13076.59375 1036.167969 13020.027344 1057.542969 12982.578125 1099.695312 C 12943.519531 1143.664062 12923.714844 1210.4375 12923.714844 1298.160156 C 12923.714844 1341.628906 12928.929688 1380.761719 12939.222656 1414.472656 C 12948.941406 1446.296875 12963.222656 1473.328125 12981.679688 1494.8125 C 13019.496094 1538.832031 13076.363281 1561.148438 13150.703125 1561.148438 C 13167.898438 1561.148438 13185.113281 1558.082031 13201.875 1552.035156 C 13213.550781 1547.820312 13225.3125 1544.664062 13237.046875 1542.570312 C 13230.292969 1531.929688 13223.207031 1520.851562 13216.175781 1509.914062 C 13213.707031 1506.710938 13211.367188 1503.394531 13209.15625 1499.949219 L 13160.027344 1423.476562 C 13143.671875 1398.011719 13150.960938 1364.117188 13176.34375 1347.628906 C 13201.722656 1331.140625 13235.65625 1338.261719 13252.269531 1363.554688 C 13253.902344 1366.042969 13278.621094 1403.6875 13305.359375 1445.226562 C 13314.078125 1454.550781 13325.199219 1454.789062 13330.011719 1454.367188 C 13335.46875 1453.890625 13348.847656 1451.152344 13355.171875 1436.050781 C 13374.769531 1389.25 13377.695312 1329.570312 13377.695312 1298.160156 C 13377.695312 1210.4375 13357.890625 1143.664062 13318.832031 1099.695312 C 13281.382812 1057.542969 13224.816406 1036.167969 13150.703125 1036.167969 M 13416.105469 1782.78125 C 13398.613281 1782.78125 13381.4375 1774.449219 13370.785156 1759.003906 C 13351.953125 1731.699219 13332.933594 1700.355469 13311.503906 1664.578125 C 13299.058594 1651.820312 13274.136719 1642.898438 13239.210938 1655.5 C 13210.441406 1665.882812 13180.664062 1671.144531 13150.703125 1671.144531 C 13097.765625 1671.144531 13049.484375 1662.304688 13007.207031 1644.867188 C 12964.425781 1627.222656 12927.765625 1600.851562 12898.246094 1566.492188 C 12869.816406 1533.394531 12848.207031 1493.054688 12834.019531 1446.589844 C 12820.546875 1402.460938 12813.71875 1352.523438 12813.71875 1298.160156 C 12813.71875 1182.699219 12842.863281 1091.347656 12900.347656 1026.640625 C 12930.003906 993.257812 12966.796875 967.753906 13009.699219 950.847656 C 13051.242188 934.472656 13098.683594 926.171875 13150.703125 926.171875 C 13202.726562 926.171875 13250.167969 934.472656 13291.710938 950.847656 C 13334.613281 967.753906 13371.40625 993.257812 13401.0625 1026.640625 C 13458.546875 1091.347656 13487.691406 1182.699219 13487.691406 1298.160156 C 13487.691406 1346.609375 13482.304688 1417.230469 13456.628906 1478.535156 C 13446.320312 1503.164062 13429.507812 1524.132812 13408.023438 1539.167969 C 13397.773438 1546.339844 13386.589844 1552.082031 13374.8125 1556.277344 C 13382.972656 1569.789062 13390.691406 1582.695312 13397.910156 1594.761719 C 13399.078125 1596.714844 13400.238281 1598.65625 13401.390625 1600.582031 C 13402.097656 1601.496094 13402.792969 1602.417969 13403.480469 1603.347656 C 13404.359375 1604.539062 13405.1875 1605.765625 13405.96875 1607.023438 L 13462.816406 1698.820312 C 13478.53125 1724.195312 13471.140625 1757.472656 13446.160156 1773.808594 C 13436.882812 1779.875 13426.441406 1782.78125 13416.105469 1782.78125 "/>
<path fill-rule="nonzero" fill="rgb(0%, 0%, 0%)" fill-opacity="1" d="M 951.222656 2348.238281 C 951.214844 2348.238281 951.207031 2348.242188 951.199219 2348.242188 C 951.207031 2348.242188 951.214844 2348.238281 951.222656 2348.238281 M 720.632812 2650.730469 C 714.589844 2650.730469 708.441406 2649.726562 702.414062 2647.609375 C 673.753906 2637.546875 658.679688 2606.15625 668.742188 2577.5 L 863.289062 2023.386719 C 881.992188 1970.117188 932.488281 1934.328125 988.941406 1934.328125 C 1045.191406 1934.328125 1095.625 1969.941406 1114.441406 2022.949219 C 1114.5 2023.109375 1114.554688 2023.269531 1114.609375 2023.429688 C 1123.863281 2050.28125 1134.320312 2081.605469 1145.394531 2114.769531 C 1160.875 2161.136719 1176.882812 2209.078125 1190.175781 2246.445312 C 1201.472656 2278.199219 1207.101562 2306.109375 1207.386719 2331.773438 C 1207.570312 2348.125 1203.664062 2370.617188 1193.46875 2381.261719 C 1213.421875 2387.023438 1237.585938 2405.878906 1245.910156 2424.308594 C 1277.742188 2494.796875 1310.339844 2574.917969 1310.589844 2575.546875 C 1321.726562 2603.808594 1307.851562 2635.746094 1279.59375 2646.882812 C 1251.378906 2658.007812 1219.496094 2644.1875 1208.308594 2616.015625 C 1199.3125 2593.574219 1189.832031 2571.316406 1180.367188 2549.066406 C 1172.578125 2530.746094 1164.691406 2512.460938 1156.660156 2494.246094 C 1149.53125 2478.078125 1146.316406 2463.257812 1125.664062 2461.980469 C 1110.699219 2461.054688 1053.492188 2476.5 1031.417969 2480.574219 C 1014.832031 2482.464844 998.464844 2483.507812 982.121094 2481.855469 C 957.886719 2479.65625 932.980469 2475.527344 913.988281 2459.265625 C 891.320312 2441.046875 884.746094 2407.007812 899.507812 2381.953125 C 909.855469 2362.882812 931.125 2353.054688 951.433594 2348.195312 C 985.863281 2341.140625 1010.300781 2338.675781 1096.230469 2344.757812 C 1098.90625 2334.515625 1097.542969 2314.230469 1086.542969 2283.3125 C 1072.890625 2244.933594 1056.710938 2196.472656 1041.0625 2149.601562 C 1030.117188 2116.828125 1019.777344 2085.863281 1010.722656 2059.578125 C 1007.402344 2050.445312 998.671875 2044.324219 988.941406 2044.324219 C 979.117188 2044.324219 970.328125 2050.554688 967.074219 2059.824219 L 772.527344 2613.9375 C 764.582031 2636.570312 743.332031 2650.730469 720.632812 2650.730469 "/>
<path fill-rule="nonzero" fill="rgb(0%, 0%, 0%)" fill-opacity="1" d="M 720.632812 1641.714844 C 714.589844 1641.714844 708.441406 1640.707031 702.414062 1638.59375 C 673.753906 1628.53125 658.679688 1597.140625 668.742188 1568.480469 L 863.289062 1014.367188 C 881.992188 961.101562 932.488281 925.3125 988.941406 925.3125 C 1045.191406 925.3125 1095.625 960.921875 1114.441406 1013.929688 C 1114.5 1014.089844 1114.554688 1014.25 1114.613281 1014.414062 L 1220.101562 1320.5625 C 1230.601562 1350.28125 1232.023438 1378.71875 1224.585938 1403.324219 C 1248.027344 1422.605469 1265.925781 1449.742188 1278.550781 1484.914062 L 1310.617188 1566.605469 C 1321.71875 1594.878906 1307.792969 1626.796875 1279.519531 1637.894531 C 1251.246094 1648.996094 1219.328125 1635.070312 1208.230469 1606.796875 L 1175.847656 1524.308594 C 1175.628906 1523.746094 1175.417969 1523.183594 1175.214844 1522.613281 C 1168.839844 1504.65625 1161.457031 1492.917969 1152.648438 1486.730469 C 1143.800781 1480.515625 1130.136719 1477.46875 1110.867188 1477.414062 L 949.074219 1477.414062 C 918.707031 1477.414062 894.089844 1452.804688 894.078125 1422.4375 C 894.066406 1392.070312 918.667969 1367.441406 949.035156 1367.417969 C 950.257812 1367.417969 1057.78125 1367.328125 1096.699219 1367.417969 C 1096.761719 1367.417969 1113.328125 1367.632812 1120.992188 1372.804688 C 1120.601562 1370.375 1117.804688 1361.203125 1116.351562 1357.101562 C 1116.292969 1356.941406 1116.238281 1356.78125 1116.183594 1356.621094 L 1010.726562 1050.566406 C 1007.40625 1041.429688 998.671875 1035.308594 988.941406 1035.308594 C 979.117188 1035.308594 970.328125 1041.535156 967.074219 1050.804688 L 772.527344 1604.917969 C 764.582031 1627.550781 743.332031 1641.710938 720.632812 1641.714844 "/>
<path fill-rule="nonzero" fill="rgb(0%, 0%, 0%)" fill-opacity="1" d="M 4226.878906 2596.171875 L 3865.90625 2596.171875 C 3835.53125 2596.171875 3810.90625 2571.550781 3810.90625 2541.175781 L 3810.90625 2318.652344 C 3810.90625 2297.480469 3818.070312 2266 3852.039062 2235.820312 C 3850.070312 2233.898438 3848.171875 2231.941406 3846.34375 2229.949219 C 3823.160156 2204.6875 3810.90625 2173.105469 3810.90625 2138.613281 L 3810.90625 1934.785156 C 3810.90625 1904.410156 3835.53125 1879.785156 3865.90625 1879.785156 L 4214.65625 1879.785156 C 4244.882812 1879.785156 4270.078125 1903.828125 4270.46875 1934.054688 C 4270.867188 1964.761719 4246.089844 1989.78125 4215.476562 1989.78125 L 3925.902344 1989.78125 C 3923.140625 1989.78125 3920.902344 1992.019531 3920.902344 1994.78125 L 3920.902344 2138.613281 C 3920.902344 2145.417969 3920.902344 2159.578125 3959.03125 2174.839844 C 3961.214844 2175.710938 3963.449219 2176.554688 3965.730469 2177.371094 C 4003.761719 2165.214844 4040.324219 2158.160156 4064.238281 2155.574219 C 4095.605469 2152.175781 4128.300781 2150.722656 4153.042969 2172.929688 C 4176.285156 2193.792969 4176.285156 2221.601562 4176.285156 2230.742188 C 4176.285156 2253.371094 4167.457031 2273.671875 4151.421875 2287.914062 C 4124.128906 2312.152344 4086.742188 2310.882812 4060.996094 2307.816406 C 4032.164062 2304.386719 4000.558594 2300.191406 3969.65625 2292.894531 C 3960.421875 2296.707031 3952.726562 2300.398438 3946.363281 2303.835938 C 3930.695312 2312.304688 3920.902344 2328.640625 3920.902344 2346.449219 L 3920.902344 2481.175781 C 3920.902344 2483.941406 3923.140625 2486.175781 3925.902344 2486.175781 L 4226.058594 2486.175781 C 4256.289062 2486.175781 4281.480469 2510.222656 4281.875 2540.445312 C 4282.269531 2571.15625 4257.496094 2596.171875 4226.878906 2596.171875 "/>
<path fill-rule="nonzero" fill="rgb(0%, 0%, 0%)" fill-opacity="1" d="M 4522.617188 2596.167969 C 4492.394531 2595.777344 4468.351562 2570.582031 4468.351562 2540.355469 L 4468.351562 2318.652344 C 4468.351562 2297.480469 4475.515625 2266 4509.484375 2235.820312 C 4507.515625 2233.898438 4505.613281 2231.941406 4503.785156 2229.949219 C 4480.601562 2204.6875 4468.351562 2173.105469 4468.351562 2138.613281 L 4468.351562 1934.785156 C 4468.351562 1904.410156 4492.972656 1879.785156 4523.347656 1879.785156 L 4872.097656 1879.785156 C 4902.324219 1879.785156 4927.519531 1903.828125 4927.910156 1934.054688 C 4928.308594 1964.761719 4903.535156 1989.78125 4872.917969 1989.78125 L 4583.347656 1989.78125 C 4580.585938 1989.78125 4578.347656 1992.019531 4578.347656 1994.78125 L 4578.347656 2138.613281 C 4578.347656 2145.417969 4578.347656 2159.578125 4616.472656 2174.839844 C 4618.65625 2175.710938 4620.894531 2176.554688 4623.171875 2177.371094 C 4661.203125 2165.214844 4697.765625 2158.160156 4721.683594 2155.574219 C 4753.046875 2152.175781 4785.742188 2150.722656 4810.484375 2172.929688 C 4833.730469 2193.792969 4833.730469 2221.601562 4833.730469 2230.742188 C 4833.730469 2253.371094 4824.898438 2273.671875 4808.863281 2287.914062 C 4781.570312 2312.152344 4744.1875 2310.882812 4718.4375 2307.816406 C 4689.609375 2304.386719 4658 2300.191406 4627.101562 2292.894531 C 4618.175781 2296.578125 4610.691406 2300.148438 4604.457031 2303.488281 C 4588.355469 2312.105469 4578.34375 2328.921875 4578.34375 2347.1875 L 4578.347656 2541.175781 C 4578.347656 2571.792969 4553.328125 2596.566406 4522.617188 2596.167969 "/>
<path fill-rule="nonzero" fill="rgb(0%, 0%, 0%)" fill-opacity="1" d="M 2511.027344 4646.003906 C 2480.652344 4646.003906 2456.03125 4621.382812 2456.03125 4591.007812 L 2456.03125 4156.449219 C 2456.03125 4114.625 2467.273438 4074.53125 2488.328125 4039.613281 L 2278.558594 4039.613281 C 2248.183594 4039.613281 2223.558594 4014.988281 2223.558594 3984.617188 C 2223.558594 3954.242188 2248.183594 3929.617188 2278.558594 3929.617188 L 2753.394531 3929.617188 C 2783.769531 3929.617188 2808.394531 3954.242188 2808.394531 3984.617188 C 2808.394531 4014.988281 2783.769531 4039.613281 2753.394531 4039.613281 L 2682.863281 4039.613281 C 2618.4375 4039.613281 2566.027344 4092.023438 2566.027344 4156.449219 L 2566.027344 4591.007812 C 2566.027344 4621.382812 2541.402344 4646.003906 2511.027344 4646.003906 "/>
<path fill-rule="nonzero" fill="rgb(0%, 0%, 0%)" fill-opacity="1" d="M 6543.429688 1641.707031 C 6513.058594 1641.707031 6488.433594 1617.082031 6488.433594 1586.707031 L 6488.433594 1390.734375 C 6488.433594 1361.9375 6465.003906 1338.511719 6436.210938 1338.511719 L 6184.4375 1338.511719 C 6166.175781 1338.511719 6148.113281 1336.269531 6132.21875 1319.878906 L 6132.21875 1586.707031 C 6132.21875 1617.082031 6107.59375 1641.707031 6077.21875 1641.707031 C 6046.84375 1641.707031 6022.222656 1617.082031 6022.222656 1586.707031 L 6022.222656 980.316406 C 6022.222656 949.941406 6046.84375 925.316406 6077.21875 925.316406 C 6107.59375 925.316406 6132.21875 949.941406 6132.21875 980.316406 L 6132.21875 1176.292969 C 6132.21875 1205.085938 6155.644531 1228.515625 6184.4375 1228.515625 L 6436.210938 1228.515625 C 6454.472656 1228.515625 6475.320312 1230.527344 6488.433594 1247.144531 L 6488.433594 980.316406 C 6488.433594 949.941406 6513.058594 925.316406 6543.429688 925.316406 C 6573.804688 925.316406 6598.429688 949.941406 6598.429688 980.316406 L 6598.429688 1586.707031 C 6598.429688 1617.082031 6573.804688 1641.707031 6543.429688 1641.707031 "/>
<path fill-rule="nonzero" fill="rgb(0%, 0%, 0%)" fill-opacity="1" d="M 11097.699219 1641.710938 C 11080.703125 1641.710938 11064.261719 1633.8125 11053.675781 1619.679688 L 10707.464844 1157.492188 C 10704.582031 1153.644531 10698.464844 1155.683594 10698.464844 1160.488281 L 10698.464844 1585.886719 C 10698.464844 1616.113281 10674.417969 1641.308594 10644.195312 1641.699219 C 10613.484375 1642.097656 10588.46875 1617.324219 10588.46875 1586.707031 L 10588.46875 980.316406 C 10588.46875 956.636719 10603.621094 935.617188 10626.089844 928.136719 C 10648.554688 920.65625 10673.285156 928.390625 10687.484375 947.34375 L 11033.691406 1409.53125 C 11036.574219 1413.378906 11042.695312 1411.339844 11042.695312 1406.535156 L 11042.695312 981.136719 C 11042.695312 950.910156 11066.738281 925.714844 11096.960938 925.324219 C 11127.671875 924.925781 11152.691406 949.699219 11152.691406 980.316406 L 11152.691406 1585.824219 C 11152.691406 1609.734375 11137.691406 1631.390625 11114.992188 1638.914062 C 11109.304688 1640.800781 11103.46875 1641.710938 11097.699219 1641.710938 "/>
<path fill-rule="nonzero" fill="rgb(0%, 0%, 0%)" fill-opacity="1" d="M 9223.269531 1586.707031 L 9223.28125 1586.707031 Z M 9531.894531 1641.707031 L 9168.273438 1641.707031 C 9137.898438 1641.707031 9113.273438 1617.082031 9113.273438 1586.707031 L 9113.273438 980.316406 C 9113.273438 949.941406 9137.898438 925.316406 9168.269531 925.316406 C 9198.644531 925.316406 9223.269531 949.941406 9223.269531 980.316406 L 9223.269531 1526.710938 C 9223.269531 1529.472656 9225.507812 1531.710938 9228.269531 1531.710938 L 9532.714844 1531.710938 C 9563.332031 1531.710938 9588.109375 1556.726562 9587.710938 1587.4375 C 9587.316406 1617.660156 9562.121094 1641.707031 9531.894531 1641.707031 "/>
<path fill-rule="nonzero" fill="rgb(0%, 0%, 0%)" fill-opacity="1" d="M 8381.953125 1641.710938 C 8376.253906 1641.710938 8370.484375 1640.824219 8364.828125 1638.972656 C 8342.03125 1631.511719 8326.957031 1609.777344 8326.957031 1585.789062 L 8326.957031 981.136719 C 8326.957031 950.910156 8351 925.71875 8381.222656 925.324219 C 8411.933594 924.925781 8436.953125 949.699219 8436.953125 980.316406 L 8436.953125 1380.902344 C 8436.953125 1385.90625 8443.480469 1387.808594 8446.167969 1383.589844 L 8721.96875 950.761719 C 8738.128906 925.402344 8771.660156 917.722656 8797.246094 933.519531 C 8822.832031 949.316406 8830.988281 982.730469 8815.558594 1008.539062 L 8693.769531 1212.242188 C 8693.367188 1212.914062 8692.953125 1213.574219 8692.527344 1214.222656 C 8678.902344 1234.957031 8672.023438 1259.03125 8672.632812 1283.835938 C 8673.246094 1308.640625 8681.304688 1332.34375 8695.9375 1352.382812 L 8843.363281 1554.277344 C 8861.273438 1578.804688 8855.910156 1613.214844 8831.378906 1631.125 C 8806.847656 1649.039062 8772.441406 1643.671875 8754.527344 1619.144531 L 8607.105469 1417.25 C 8597.285156 1403.800781 8590.453125 1388.8125 8585.582031 1366.863281 L 8428.335938 1616.265625 C 8418.054688 1632.402344 8400.394531 1641.710938 8381.953125 1641.710938 "/>
<path fill-rule="nonzero" fill="rgb(0%, 0%, 0%)" fill-opacity="1" d="M 8803.867188 2603.664062 C 8785.828125 2603.664062 8768.160156 2594.800781 8757.632812 2578.523438 C 8756.960938 2577.488281 8689.714844 2473.503906 8617.882812 2361.441406 C 8608.640625 2347.023438 8609.75 2331.90625 8603.976562 2300.890625 C 8553.75 2374.765625 8486.632812 2474.804688 8422.703125 2569.742188 C 8408.777344 2590.417969 8382.613281 2599.21875 8358.902344 2590.929688 C 8336.652344 2583.148438 8322.085938 2561.71875 8322.085938 2538.148438 L 8322.085938 1933.449219 C 8322.085938 1903.226562 8346.128906 1878.03125 8376.351562 1877.636719 C 8407.0625 1877.238281 8432.078125 1902.011719 8432.078125 1932.628906 L 8432.078125 2349.46875 C 8432.078125 2352.425781 8435.902344 2353.605469 8437.5625 2351.15625 C 8484.628906 2281.625 8537.90625 2203.1875 8584.824219 2134.769531 C 8585.617188 2130.601562 8586.472656 2126.402344 8587.386719 2122.191406 C 8603.25 2049.191406 8638.113281 1973.078125 8680.652344 1918.589844 C 8686.261719 1911.402344 8716.335938 1875.386719 8757.433594 1872.242188 C 8777.714844 1870.6875 8796.890625 1877.367188 8811.425781 1891.046875 C 8811.792969 1891.390625 8812.15625 1891.746094 8812.515625 1892.101562 C 8822.046875 1901.582031 8836.8125 1922.683594 8828.621094 1957.515625 C 8826.328125 1967.273438 8822.328125 1977.886719 8816.390625 1989.964844 C 8807.476562 2008.109375 8796.105469 2025.546875 8790.640625 2032.84375 C 8790.464844 2033.078125 8790.285156 2033.316406 8790.101562 2033.546875 C 8778.8125 2048.117188 8751.660156 2086.558594 8711.617188 2144.535156 C 8693.878906 2170.214844 8685.429688 2201.292969 8688.289062 2232.371094 C 8688.308594 2232.546875 8688.324219 2232.722656 8688.339844 2232.898438 C 8690.886719 2259.855469 8698.339844 2283.132812 8710.484375 2302.078125 C 8782.195312 2413.949219 8849.324219 2517.753906 8849.996094 2518.789062 C 8866.492188 2544.292969 8859.1875 2578.34375 8833.683594 2594.839844 C 8824.453125 2600.808594 8814.097656 2603.660156 8803.867188 2603.664062 "/>
<path fill-rule="nonzero" fill="rgb(0%, 0%, 0%)" fill-opacity="1" d="M 7827.59375 1648.851562 C 7765.339844 1648.851562 7714.230469 1632.734375 7675.691406 1600.945312 C 7636.902344 1568.949219 7610.695312 1520.867188 7597.800781 1458.039062 C 7591.691406 1428.285156 7610.859375 1399.210938 7640.613281 1393.101562 C 7670.367188 1387 7699.441406 1406.164062 7705.546875 1435.917969 C 7713.375 1474.042969 7726.503906 1500.265625 7745.6875 1516.089844 C 7764.257812 1531.410156 7791.050781 1538.855469 7827.59375 1538.855469 C 7856.304688 1538.855469 7897.339844 1535.339844 7922.136719 1504.925781 C 7943.382812 1478.863281 7954.15625 1433.488281 7954.15625 1370.058594 L 7954.15625 973.171875 C 7954.15625 942.796875 7978.78125 918.171875 8009.15625 918.171875 C 8039.527344 918.171875 8064.152344 942.796875 8064.152344 973.171875 L 8064.152344 1370.058594 C 8064.152344 1460.726562 8045.585938 1527.578125 8007.390625 1574.429688 C 7967.128906 1623.8125 7906.636719 1648.851562 7827.59375 1648.851562 "/>
<path fill-rule="nonzero" fill="rgb(0%, 0%, 0%)" fill-opacity="1" d="M 10412.183594 1880.101562 C 10388.90625 1873.132812 10363.8125 1882.265625 10350.457031 1902.566406 C 10342.132812 1915.222656 10196.914062 2119.996094 10110.535156 2239.261719 C 10024.15625 2119.996094 9878.9375 1915.222656 9870.613281 1902.566406 C 9857.261719 1882.265625 9832.167969 1873.132812 9808.890625 1880.101562 C 9785.609375 1887.070312 9769.664062 1908.488281 9769.664062 1932.789062 L 9769.664062 2538.359375 C 9769.664062 2568.585938 9793.710938 2593.78125 9823.933594 2594.171875 C 9854.640625 2594.574219 9879.660156 2569.796875 9879.660156 2539.179688 L 9879.660156 2115.390625 C 9879.660156 2112.46875 9883.40625 2111.265625 9885.101562 2113.644531 C 9938.75 2188.953125 10000.875 2275.621094 10042.058594 2332.050781 C 10043.960938 2334.660156 10044.429688 2338.042969 10043.304688 2341.070312 L 10043.289062 2341.113281 C 10035.367188 2362.523438 10026.773438 2394.746094 10036.496094 2429.335938 C 10044.261719 2456.957031 10067.207031 2494.816406 10110.535156 2494.816406 C 10153 2494.816406 10177.9375 2455.960938 10184.574219 2429.335938 C 10193.265625 2394.472656 10185.707031 2362.523438 10177.78125 2341.113281 L 10177.765625 2341.070312 C 10176.644531 2338.042969 10177.109375 2334.660156 10179.011719 2332.050781 C 10220.199219 2275.621094 10282.320312 2188.953125 10335.972656 2113.644531 C 10337.664062 2111.265625 10341.410156 2112.46875 10341.410156 2115.390625 L 10341.410156 2538.359375 C 10341.410156 2568.585938 10365.453125 2593.78125 10395.679688 2594.171875 C 10426.386719 2594.570312 10451.40625 2569.796875 10451.40625 2539.179688 L 10451.40625 1932.789062 C 10451.40625 1908.488281 10435.460938 1887.070312 10412.183594 1880.101562 "/>
<path fill-rule="nonzero" fill="rgb(0%, 0%, 0%)" fill-opacity="1" d="M 10465.796875 988.0625 C 10465.359375 990.742188 10464.71875 993.402344 10463.871094 996.023438 C 10464.839844 993.03125 10465.433594 990.320312 10465.796875 988.0625 M 10458.144531 1008.289062 C 10458.144531 1008.292969 10458.140625 1008.296875 10458.140625 1008.300781 C 10458.140625 1008.296875 10458.144531 1008.292969 10458.144531 1008.289062 M 10458.109375 1008.351562 C 10458.097656 1008.367188 10458.089844 1008.378906 10458.078125 1008.394531 C 10458.089844 1008.382812 10458.097656 1008.367188 10458.109375 1008.351562 M 10458.070312 1008.414062 C 10457.679688 1009.03125 10457.273438 1009.644531 10456.859375 1010.253906 L 10456.832031 1010.289062 C 10457.265625 1009.664062 10457.675781 1009.039062 10458.070312 1008.414062 M 10410.570312 1642.902344 C 10379.863281 1643.300781 10354.84375 1618.527344 10354.84375 1587.910156 C 10354.84375 1586.390625 10354.847656 1434.535156 10355.054688 1284.335938 C 10355.109375 1243.863281 10355.175781 1207.140625 10355.25 1174.351562 C 10355.261719 1169.433594 10348.910156 1167.464844 10346.128906 1171.515625 L 10191.84375 1396.214844 C 10175.402344 1428.265625 10166.710938 1471.828125 10165.992188 1525.753906 C 10165.589844 1555.839844 10141.085938 1580.019531 10111 1580.019531 L 10110.585938 1580.019531 C 10080.210938 1580.019531 10055.585938 1555.398438 10055.585938 1525.023438 C 10055.585938 1522.636719 10055.738281 1520.285156 10056.035156 1517.980469 C 10056.480469 1479.203125 10055.765625 1432.726562 10030.5 1398.328125 C 10030.183594 1397.894531 10029.875 1397.460938 10029.570312 1397.019531 L 9873.660156 1171.1875 C 9870.875 1167.148438 9864.546875 1169.121094 9864.546875 1174.027344 L 9864.546875 1587.089844 C 9864.546875 1617.3125 9840.503906 1642.507812 9810.28125 1642.902344 C 9779.570312 1643.300781 9754.550781 1618.527344 9754.550781 1587.910156 L 9754.550781 981.515625 C 9754.550781 957.445312 9770.203125 936.171875 9793.183594 929.007812 C 9816.164062 921.847656 9841.132812 930.460938 9854.808594 950.269531 L 10110.402344 1320.496094 L 10366.015625 948.234375 C 10366.164062 948.011719 10366.320312 947.785156 10366.476562 947.5625 C 10383.847656 922.773438 10417.988281 916.675781 10442.863281 933.929688 C 10459.777344 945.664062 10468.082031 965.191406 10466.277344 984.335938 C 10465.226562 1015.6875 10464.839844 1359.628906 10464.839844 1587.09375 C 10464.839844 1617.320312 10440.796875 1642.507812 10410.570312 1642.902344 "/>
<path fill-rule="nonzero" fill="rgb(0%, 0%, 0%)" fill-opacity="1" d="M 1587.316406 1526.710938 C 1587.316406 1529.472656 1589.554688 1531.710938 1592.316406 1531.710938 L 1832.878906 1531.710938 C 1887.808594 1531.710938 1912.824219 1479.417969 1912.824219 1430.832031 C 1912.824219 1406.835938 1904.535156 1386.894531 1887.480469 1369.867188 C 1861.34375 1343.769531 1821.125 1331.714844 1799.65625 1331.148438 L 1692.515625 1331.339844 C 1691.277344 1331.34375 1690.199219 1331.34375 1689.300781 1331.347656 L 1689.199219 1331.347656 C 1689.171875 1331.347656 1689.132812 1331.347656 1689.097656 1331.347656 C 1658.511719 1331.347656 1633.742188 1306.371094 1634.105469 1275.679688 C 1634.464844 1245.46875 1659.609375 1221.402344 1689.820312 1221.347656 L 1692.5 1221.34375 C 1698.066406 1221.332031 1706.820312 1221.3125 1717.355469 1221.292969 C 1740.539062 1221.242188 1772.335938 1221.171875 1797.839844 1221.132812 C 1798.730469 1221.132812 1799.65625 1221.136719 1800.570312 1221.148438 L 1811.136719 1221.132812 C 1829.585938 1221.132812 1843.453125 1206.925781 1851.859375 1195.007812 C 1865.949219 1175.027344 1874.359375 1147.617188 1874.359375 1121.683594 C 1874.359375 1087.300781 1840.117188 1035.3125 1788.5 1035.3125 L 1592.316406 1035.3125 C 1589.554688 1035.3125 1587.316406 1037.554688 1587.316406 1040.3125 Z M 1832.878906 1641.707031 L 1532.320312 1641.707031 C 1501.945312 1641.707031 1477.320312 1617.082031 1477.320312 1586.707031 L 1477.320312 980.316406 C 1477.320312 949.941406 1501.945312 925.316406 1532.320312 925.316406 L 1788.5 925.316406 C 1842.214844 925.316406 1892.695312 948.289062 1930.636719 990 C 1964.777344 1027.535156 1984.355469 1075.53125 1984.355469 1121.683594 C 1984.355469 1170.175781 1972.050781 1234.847656 1924.164062 1266.773438 C 1985.019531 1294.703125 2022.820312 1377.664062 2022.820312 1430.832031 C 2022.820312 1486.246094 2005.152344 1537.910156 1973.070312 1576.3125 C 1937.839844 1618.484375 1888.054688 1641.707031 1832.878906 1641.707031 "/>
<path fill-rule="nonzero" fill="rgb(0%, 0%, 0%)" fill-opacity="1" d="M 7070.367188 1641.707031 C 7039.992188 1641.707031 7015.367188 1617.082031 7015.367188 1586.707031 L 7015.367188 980.316406 C 7015.367188 949.941406 7039.992188 925.316406 7070.367188 925.316406 C 7100.742188 925.316406 7125.363281 949.941406 7125.363281 980.316406 L 7125.363281 1586.707031 C 7125.363281 1617.082031 7100.742188 1641.707031 7070.367188 1641.707031 "/>
<path fill-rule="nonzero" fill="rgb(0%, 0%, 0%)" fill-opacity="1" d="M 4210.683594 1641.707031 L 3849.710938 1641.707031 C 3819.335938 1641.707031 3794.710938 1617.082031 3794.710938 1586.707031 L 3794.710938 1363.449219 C 3794.710938 1330.472656 3808.757812 1290.875 3835.847656 1275.796875 C 3805.90625 1258.085938 3794.710938 1220.199219 3794.710938 1188.007812 L 3794.710938 980.316406 C 3794.710938 949.941406 3819.335938 925.316406 3849.710938 925.316406 L 4198.457031 925.316406 C 4228.683594 925.316406 4253.878906 949.363281 4254.273438 979.585938 C 4254.671875 1010.296875 4229.898438 1035.3125 4199.28125 1035.3125 L 3904.707031 1035.3125 L 3904.707031 1183.757812 C 3904.707031 1188.582031 3905.378906 1193.402344 3906.957031 1197.957031 C 3911.601562 1211.367188 3922.238281 1220.230469 3938.203125 1219.960938 L 4140.613281 1219.960938 C 4170.660156 1219.960938 4195.769531 1243.722656 4196.414062 1273.761719 C 4197.070312 1304.347656 4172.695312 1329.519531 4142.207031 1329.949219 C 4141.136719 1329.964844 4033.773438 1331.472656 3938.234375 1331.5 C 3921.476562 1331.289062 3910.835938 1340.777344 3906.476562 1355.085938 C 3905.230469 1359.171875 3904.707031 1363.441406 3904.707031 1367.710938 L 3904.707031 1531.710938 L 4209.863281 1531.710938 C 4240.089844 1531.710938 4265.285156 1555.753906 4265.679688 1585.976562 C 4266.078125 1616.6875 4241.304688 1641.707031 4210.683594 1641.707031 "/>
<path fill-rule="nonzero" fill="rgb(0%, 0%, 0%)" fill-opacity="1" d="M 4964.203125 925.320312 L 4615.457031 925.320312 C 4585.082031 925.320312 4560.457031 949.941406 4560.457031 980.316406 L 4560.457031 1188.007812 C 4560.457031 1220.199219 4571.652344 1258.085938 4601.589844 1275.796875 C 4574.503906 1290.875 4560.457031 1330.472656 4560.457031 1363.449219 L 4560.457031 1586.707031 C 4560.457031 1617.082031 4585.082031 1641.707031 4615.457031 1641.707031 C 4645.832031 1641.707031 4670.453125 1617.082031 4670.453125 1586.707031 L 4670.453125 1367.710938 C 4670.453125 1363.441406 4670.976562 1359.171875 4672.222656 1355.085938 C 4676.582031 1340.777344 4687.222656 1331.289062 4703.976562 1331.5 C 4799.519531 1331.46875 4906.878906 1329.964844 4907.953125 1329.949219 C 4938.441406 1329.519531 4962.816406 1304.347656 4962.160156 1273.761719 C 4961.515625 1243.722656 4936.40625 1219.960938 4906.359375 1219.960938 L 4703.949219 1219.960938 C 4687.984375 1220.230469 4677.347656 1211.367188 4672.703125 1197.960938 C 4671.125 1193.402344 4670.453125 1188.582031 4670.453125 1183.761719 L 4670.453125 1040.3125 C 4670.453125 1037.554688 4672.691406 1035.316406 4675.453125 1035.316406 L 4965.023438 1035.316406 C 4995.640625 1035.316406 5020.417969 1010.292969 5020.015625 979.585938 C 5019.625 949.363281 4994.429688 925.320312 4964.203125 925.320312 "/>
<path fill-rule="nonzero" fill="rgb(0%, 0%, 0%)" fill-opacity="1" d="M 2043.542969 2513.691406 C 2032.664062 2526.027344 2013.535156 2540.726562 1984.183594 2540.726562 L 1751.484375 2540.726562 C 1748.722656 2540.726562 1746.484375 2538.488281 1746.484375 2535.726562 L 1746.484375 2049.332031 C 1746.484375 2046.570312 1748.722656 2044.332031 1751.484375 2044.332031 L 1914.085938 2044.332031 C 1950.484375 2044.332031 1982.355469 2054.167969 2003.835938 2072.023438 C 2020.910156 2086.21875 2030.3125 2104.722656 2030.3125 2124.121094 C 2030.3125 2145.898438 2028.734375 2177.570312 2015.066406 2201.0625 C 2010.847656 2208.316406 2005.65625 2214.148438 1999.824219 2218.828125 C 1976.847656 2212.136719 1953.15625 2208.613281 1929.695312 2208.613281 C 1908.179688 2208.613281 1891.832031 2210.75 1878.257812 2215.332031 C 1842.753906 2227.320312 1830.105469 2255.496094 1830.105469 2277.867188 C 1830.105469 2298.765625 1841.5625 2325.753906 1873.707031 2338.824219 C 1888.316406 2344.761719 1906.105469 2347.527344 1929.695312 2347.527344 C 1957.730469 2347.527344 1981.914062 2344.011719 2002.761719 2338.074219 C 2043.394531 2361.410156 2069.378906 2402.101562 2069.378906 2439.851562 C 2069.378906 2468.578125 2060.203125 2494.800781 2043.542969 2513.691406 M 2099.414062 2272.710938 C 2103.476562 2267.214844 2107.035156 2261.726562 2110.148438 2256.371094 C 2137.183594 2209.894531 2140.308594 2158.632812 2140.308594 2124.121094 C 2140.308594 2097.746094 2134.371094 2072.285156 2122.65625 2048.441406 C 2111.261719 2025.25 2094.945312 2004.726562 2074.15625 1987.441406 C 2032.367188 1952.699219 1977.015625 1934.335938 1914.085938 1934.335938 L 1692.078125 1934.335938 C 1691.976562 1934.335938 1691.878906 1934.34375 1691.78125 1934.34375 C 1691.683594 1934.34375 1691.585938 1934.335938 1691.488281 1934.335938 C 1661.113281 1934.335938 1636.488281 1958.960938 1636.488281 1989.332031 L 1636.488281 2595.726562 C 1636.488281 2626.101562 1661.113281 2650.722656 1691.488281 2650.722656 C 1693.070312 2650.722656 1694.636719 2650.640625 1696.1875 2650.507812 C 1697.738281 2650.640625 1699.304688 2650.722656 1700.890625 2650.722656 L 1984.183594 2650.722656 C 2039.105469 2650.722656 2089.484375 2627.898438 2126.039062 2586.449219 C 2160.433594 2547.453125 2179.375 2495.386719 2179.375 2439.851562 C 2179.375 2376.382812 2150.992188 2317.097656 2099.414062 2272.710938 "/>
<path fill-rule="nonzero" fill="rgb(0%, 0%, 0%)" fill-opacity="1" d="M 1747.214844 4661.210938 C 1685 4661.210938 1627.664062 4643.9375 1581.410156 4611.253906 C 1539.835938 4581.882812 1508.050781 4540.300781 1491.910156 4494.167969 C 1481.875 4465.496094 1496.984375 4434.125 1525.65625 4424.089844 C 1554.320312 4414.058594 1585.699219 4429.167969 1595.730469 4457.835938 C 1604.382812 4482.558594 1621.835938 4505.136719 1644.878906 4521.417969 C 1672.46875 4540.914062 1707.859375 4551.214844 1747.214844 4551.214844 C 1797.707031 4551.214844 1838.289062 4540.457031 1864.578125 4520.105469 C 1887.207031 4502.582031 1898.210938 4478.675781 1898.210938 4447.011719 C 1898.210938 4392.117188 1860.625 4367.496094 1737.359375 4341.667969 C 1671.921875 4328.175781 1618.957031 4306.347656 1579.949219 4276.789062 C 1529.390625 4238.480469 1502.667969 4187.242188 1502.667969 4128.609375 C 1502.667969 4068.085938 1526.191406 4013.585938 1568.898438 3975.15625 C 1613.058594 3935.414062 1675.605469 3914.410156 1749.777344 3914.410156 C 1800.671875 3914.410156 1853.695312 3932.1875 1899.085938 3964.464844 C 1943.050781 3995.734375 1975.777344 4037.28125 1991.234375 4081.453125 C 2001.269531 4110.125 1986.160156 4141.496094 1957.488281 4151.53125 C 1951.480469 4153.632812 1945.347656 4154.632812 1939.324219 4154.632812 C 1916.601562 4154.632812 1895.34375 4140.445312 1887.414062 4117.785156 C 1871.957031 4073.617188 1811.632812 4024.40625 1749.777344 4024.40625 C 1703.214844 4024.40625 1666.113281 4035.648438 1642.476562 4056.917969 C 1617.835938 4079.089844 1612.664062 4108.140625 1612.664062 4128.609375 C 1612.664062 4143.617188 1616.160156 4166.21875 1646.378906 4189.121094 C 1671.867188 4208.429688 1711.015625 4223.929688 1759.597656 4233.945312 C 1759.65625 4233.957031 1759.710938 4233.96875 1759.769531 4233.980469 C 1813.238281 4245.179688 1869.304688 4258.421875 1915.523438 4286.046875 C 1943.878906 4302.996094 1966.085938 4324.121094 1981.53125 4348.839844 C 1999.230469 4377.164062 2008.207031 4410.191406 2008.207031 4447.011719 C 2008.207031 4479.605469 2001.640625 4509.925781 1988.695312 4537.125 C 1975.691406 4564.441406 1956.589844 4587.976562 1931.914062 4607.078125 C 1886.175781 4642.492188 1822.308594 4661.210938 1747.214844 4661.210938 "/>
<path fill-rule="nonzero" fill="rgb(0%, 0%, 0%)" fill-opacity="1" d="M 13136.984375 1973.960938 C 13062.871094 1973.960938 13006.304688 1995.332031 12968.855469 2037.484375 C 12929.796875 2081.453125 12909.992188 2148.226562 12909.992188 2235.949219 C 12909.992188 2279.421875 12915.210938 2318.550781 12925.5 2352.261719 C 12935.214844 2384.089844 12949.5 2411.117188 12967.957031 2432.601562 C 13005.773438 2476.621094 13062.640625 2498.941406 13136.984375 2498.941406 C 13163.660156 2498.941406 13246.796875 2481.566406 13284.707031 2489.546875 C 13281.914062 2485.441406 13264.972656 2469.820312 13262.21875 2465.769531 C 13257.128906 2458.289062 13249.441406 2453.027344 13240.671875 2450.789062 C 13240.628906 2450.777344 13240.582031 2450.765625 13240.539062 2450.753906 C 13200.609375 2440.519531 13162.5625 2417.699219 13127.457031 2382.921875 C 13097.875 2353.613281 13081.886719 2317.867188 13083.59375 2284.84375 C 13084.875 2260.0625 13095.941406 2238.085938 13114.75 2222.960938 C 13140.152344 2202.527344 13164.9375 2201.90625 13181.367188 2204.347656 C 13252.121094 2214.878906 13285.324219 2301.074219 13293.351562 2347.886719 C 13293.96875 2347.652344 13312.589844 2341.773438 13313.199219 2341.519531 C 13349.097656 2326.550781 13373.214844 2281.785156 13373.214844 2230.125 C 13373.214844 2144.410156 13352.324219 2079.121094 13311.117188 2036.078125 C 13271.660156 1994.859375 13213.070312 1973.960938 13136.984375 1973.960938 M 13446.460938 2692.710938 C 13428.949219 2692.710938 13411.738281 2684.367188 13401.074219 2668.839844 C 13401.066406 2668.832031 13401.0625 2668.824219 13401.054688 2668.8125 L 13400.996094 2668.726562 C 13398.210938 2664.671875 13385.75 2648.089844 13359.285156 2609.441406 C 13351.484375 2600.675781 13337.457031 2592.472656 13327.273438 2591.300781 C 13306.0625 2588.863281 13275.351562 2588.398438 13244.121094 2594.777344 C 13211.617188 2601.414062 13174.773438 2608.9375 13136.984375 2608.9375 C 13084.042969 2608.9375 13035.761719 2600.09375 12993.484375 2582.65625 C 12950.703125 2565.011719 12914.042969 2538.640625 12884.523438 2504.28125 C 12856.09375 2471.183594 12834.484375 2430.84375 12820.296875 2384.378906 C 12806.828125 2340.25 12799.996094 2290.3125 12799.996094 2235.949219 C 12799.996094 2120.488281 12829.140625 2029.136719 12886.625 1964.433594 C 12916.28125 1931.046875 12953.074219 1905.546875 12995.976562 1888.636719 C 13037.519531 1872.265625 13084.960938 1863.964844 13136.984375 1863.964844 C 13188.835938 1863.964844 13236.390625 1871.816406 13278.320312 1887.304688 C 13322.097656 1903.472656 13359.863281 1927.933594 13390.574219 1960.015625 C 13421.363281 1992.179688 13444.859375 2031.824219 13460.40625 2077.847656 C 13475.539062 2122.640625 13483.210938 2173.875 13483.210938 2230.125 C 13483.210938 2319.28125 13440.871094 2397.097656 13373.796875 2434.210938 C 13395.691406 2466.324219 13418.714844 2500.007812 13440.179688 2531.355469 C 13445.257812 2537.75 13450.003906 2544.675781 13454.417969 2552.128906 L 13491.667969 2606.457031 C 13491.699219 2606.496094 13491.722656 2606.535156 13491.75 2606.578125 L 13491.769531 2606.605469 C 13508.945312 2631.652344 13502.570312 2665.875 13477.53125 2683.058594 C 13468.019531 2689.582031 13457.183594 2692.710938 13446.460938 2692.710938 "/>
<path fill-rule="nonzero" fill="rgb(0%, 0%, 0%)" fill-opacity="1" d="M 4050.882812 4646.011719 C 4022.625 4646.011719 3996.9375 4636.667969 3976.597656 4618.984375 C 3960.042969 4604.59375 3947.203125 4584.867188 3938.429688 4560.351562 L 3741.316406 4007.835938 C 3731.109375 3979.226562 3746.027344 3947.761719 3774.636719 3937.554688 C 3803.246094 3927.347656 3834.707031 3942.269531 3844.914062 3970.875 L 4042.015625 4523.34375 C 4045.109375 4532 4047.902344 4535.132812 4048.632812 4535.847656 C 4048.980469 4535.914062 4049.695312 4536.015625 4050.882812 4536.015625 C 4052.09375 4536.015625 4052.816406 4535.914062 4053.160156 4535.84375 C 4053.882812 4535.140625 4056.691406 4532 4059.792969 4523.238281 L 4256.871094 3966.277344 C 4267.003906 3937.640625 4298.433594 3922.640625 4327.066406 3932.773438 C 4355.703125 3942.90625 4370.699219 3974.335938 4360.566406 4002.96875 L 4163.488281 4559.929688 C 4154.773438 4584.550781 4141.941406 4604.375 4125.34375 4618.851562 C 4104.96875 4636.621094 4079.222656 4646.011719 4050.882812 4646.011719 "/>
<path fill-rule="nonzero" fill="rgb(0%, 0%, 0%)" fill-opacity="1" d="M 5239.328125 4643.984375 C 5211.445312 4643.984375 5185.882812 4632.011719 5167.347656 4610.273438 C 5155.132812 4595.941406 5146.003906 4577.792969 5139.511719 4554.902344 L 5037.03125 4316.019531 L 4933.613281 4554.988281 C 4927.121094 4577.839844 4918 4595.960938 4905.796875 4610.273438 C 4887.265625 4632.011719 4861.703125 4643.984375 4833.820312 4643.984375 C 4806.011719 4643.984375 4780.5 4632.0625 4761.984375 4610.421875 C 4749.050781 4595.300781 4739.558594 4575.898438 4732.964844 4551.105469 C 4732.898438 4550.867188 4732.839844 4550.628906 4732.777344 4550.386719 L 4594.28125 4000.070312 C 4586.867188 3970.613281 4604.734375 3940.726562 4634.191406 3933.3125 C 4663.648438 3925.898438 4693.535156 3943.769531 4700.949219 3973.226562 L 4835.003906 4505.890625 L 4951.71875 4236.199219 C 4973.578125 4185.703125 4981.902344 4166.46875 4981.894531 4120.074219 L 4981.578125 4071.429688 C 4981.378906 4041.058594 5005.839844 4016.277344 5036.210938 4016.074219 C 5036.335938 4016.074219 5036.460938 4016.074219 5036.582031 4016.074219 C 5066.785156 4016.074219 5091.371094 4040.457031 5091.570312 4070.707031 L 5091.886719 4117.964844 C 5091.886719 4118.015625 5091.886719 4118.0625 5091.886719 4118.109375 C 5091.886719 4118.632812 5091.890625 4119.148438 5091.890625 4119.667969 L 5091.894531 4120.503906 C 5091.894531 4120.550781 5091.894531 4120.597656 5091.894531 4120.644531 C 5092.074219 4165.441406 5099.679688 4183.136719 5120 4230.425781 L 5122.5625 4236.390625 L 5238.15625 4505.84375 L 5372.199219 3973.226562 C 5379.613281 3943.769531 5409.5 3925.902344 5438.957031 3933.3125 C 5468.410156 3940.726562 5486.28125 3970.613281 5478.867188 4000.070312 L 5340.371094 4550.386719 C 5340.308594 4550.628906 5340.246094 4550.867188 5340.183594 4551.105469 C 5333.589844 4575.898438 5324.09375 4595.300781 5311.164062 4610.421875 C 5292.648438 4632.0625 5267.136719 4643.984375 5239.328125 4643.984375 "/>
<path fill-rule="nonzero" fill="rgb(0%, 0%, 0%)" fill-opacity="1" d="M 4804.050781 5638.851562 C 4801.910156 5638.851562 4799.757812 5638.777344 4797.597656 5638.628906 C 4759.808594 5636 4727.507812 5610.734375 4715.304688 5574.257812 C 4715.066406 5573.539062 4714.832031 5572.828125 4714.601562 5572.113281 C 4714.175781 5570.800781 4713.804688 5569.472656 4713.480469 5568.132812 L 4574.980469 4995.453125 C 4567.839844 4965.929688 4585.988281 4936.207031 4615.507812 4929.066406 C 4645.035156 4921.933594 4674.753906 4940.070312 4681.894531 4969.597656 L 4809.34375 5496.59375 C 4835.527344 5443.625 4871.496094 5370.195312 4903.839844 5301.875 C 4927.621094 5251.644531 4963.414062 5199.042969 4953.78125 5141.449219 C 4951.203125 5126.046875 4943.796875 5111.859375 4941.941406 5095.921875 C 4937.480469 5057.621094 4949.371094 5010.488281 4985.988281 4991.546875 C 5005.042969 4981.691406 5027.144531 4981.5 5046.617188 4991.023438 C 5070.789062 5002.84375 5088.757812 5028.941406 5094.691406 5060.851562 C 5099.238281 5085.332031 5095.472656 5107.875 5092.804688 5132.140625 C 5086.007812 5193.898438 5124.433594 5248.492188 5148.890625 5303 C 5175.898438 5363.1875 5202.660156 5423.5 5228.441406 5484.222656 L 5352.902344 4969.597656 C 5360.039062 4940.074219 5389.761719 4921.933594 5419.285156 4929.066406 C 5448.808594 4936.207031 5466.953125 4965.929688 5459.8125 4995.453125 L 5321.316406 5568.132812 C 5321.257812 5568.378906 5321.195312 5568.628906 5321.128906 5568.875 L 5320.816406 5570.089844 C 5315.691406 5589.703125 5304.84375 5606.539062 5289.449219 5618.804688 C 5275.003906 5630.3125 5257.566406 5637.015625 5239.027344 5638.1875 C 5220.539062 5639.359375 5202.460938 5634.929688 5186.742188 5625.382812 C 5169.964844 5615.199219 5157.117188 5599.910156 5149.585938 5581.167969 C 5121.703125 5511.746094 5069.046875 5393.046875 5026.566406 5299.222656 C 5019.597656 5314.257812 5011.855469 5330.785156 5003.257812 5348.945312 C 4960.917969 5438.371094 4912.53125 5536.269531 4887.457031 5586.664062 C 4871.429688 5618.878906 4839.171875 5638.851562 4804.050781 5638.851562 "/>
<path fill-rule="nonzero" fill="rgb(0%, 0%, 0%)" fill-opacity="1" d="M 12218.546875 2062.328125 C 12218.546875 2112.570312 12225.121094 2154.832031 12238.09375 2187.9375 C 12248.148438 2213.609375 12262.214844 2233.902344 12279.898438 2248.253906 C 12292.328125 2258.34375 12322.929688 2277.742188 12374.152344 2277.746094 C 12388.648438 2277.746094 12404.785156 2276.191406 12422.636719 2272.4375 C 12450.785156 2266.519531 12476.785156 2250.628906 12495.84375 2227.699219 C 12517.128906 2202.089844 12528.382812 2169.285156 12528.382812 2132.824219 C 12528.382812 2110.46875 12524.71875 2068.132812 12500.191406 2035.765625 C 12476.683594 2004.746094 12438.960938 1989.667969 12384.871094 1989.667969 L 12223.546875 1989.667969 C 12220.785156 1989.667969 12218.546875 1991.90625 12218.546875 1994.667969 Z M 12163.550781 2597.257812 C 12133.175781 2597.257812 12108.550781 2572.632812 12108.550781 2542.257812 L 12108.550781 1934.671875 C 12108.550781 1904.296875 12133.175781 1879.671875 12163.550781 1879.671875 L 12384.871094 1879.671875 C 12496.484375 1879.671875 12556.863281 1928.429688 12587.859375 1969.332031 C 12620.4375 2012.320312 12638.378906 2070.382812 12638.378906 2132.824219 C 12638.378906 2195.285156 12618.339844 2252.40625 12580.433594 2298.007812 C 12545.589844 2339.929688 12497.589844 2369.074219 12445.273438 2380.078125 C 12420.035156 2385.386719 12380.785156 2390.617188 12337.132812 2385.378906 C 12291.855469 2379.945312 12252.019531 2364.636719 12218.546875 2339.839844 L 12218.546875 2542.257812 C 12218.546875 2572.632812 12193.925781 2597.257812 12163.550781 2597.257812 "/>
<path fill-rule="nonzero" fill="rgb(0%, 0%, 0%)" fill-opacity="1" d="M 12238.246094 1288.859375 L 12400.570312 1288.859375 C 12444.6875 1288.859375 12482.734375 1277.753906 12507.691406 1257.589844 C 12531.171875 1238.628906 12543.078125 1211.804688 12543.078125 1177.871094 C 12543.078125 1155.386719 12539.464844 1112.855469 12515.253906 1080.636719 C 12492.035156 1049.738281 12454.519531 1034.71875 12400.570312 1034.71875 L 12238.246094 1034.71875 Z M 12183.25 1642.304688 C 12152.875 1642.304688 12128.25 1617.683594 12128.25 1587.308594 L 12128.25 979.71875 C 12128.25 949.34375 12152.875 924.722656 12183.25 924.722656 L 12400.570312 924.722656 C 12512.242188 924.722656 12572.394531 973.578125 12603.191406 1014.5625 C 12621.070312 1038.351562 12634.390625 1066.273438 12642.792969 1097.546875 C 12649.613281 1122.945312 12653.074219 1149.96875 12653.074219 1177.871094 C 12653.074219 1211.699219 12646.371094 1243.210938 12633.148438 1271.527344 C 12620.148438 1299.363281 12601.195312 1323.464844 12576.8125 1343.160156 C 12531.707031 1379.59375 12470.761719 1398.855469 12400.570312 1398.855469 L 12238.246094 1398.855469 L 12238.246094 1587.308594 C 12238.246094 1617.683594 12213.625 1642.304688 12183.25 1642.304688 "/>
<path fill-rule="nonzero" fill="rgb(0%, 0%, 0%)" fill-opacity="1" d="M 5773.117188 4646.820312 C 5762.011719 4646.820312 5750.808594 4643.46875 5741.097656 4636.503906 C 5716.453125 4618.816406 5710.78125 4584.519531 5728.417969 4559.839844 L 5866.019531 4367.289062 C 5883.957031 4342.226562 5893.621094 4312.957031 5893.984375 4282.609375 C 5894.351562 4252.273438 5885.402344 4222.804688 5868.101562 4197.390625 L 5743.789062 4014.75 C 5726.699219 3989.640625 5733.199219 3955.429688 5758.308594 3938.339844 C 5783.417969 3921.25 5817.628906 3927.75 5834.722656 3952.859375 L 5959.035156 4135.5 C 5972.136719 4154.746094 5983.371094 4175.390625 5985.539062 4202.96875 L 6166.609375 3951.65625 C 6184.367188 3927.011719 6218.738281 3921.425781 6243.382812 3939.183594 C 6268.023438 3956.9375 6273.609375 3991.308594 6255.855469 4015.953125 L 6128.394531 4192.863281 C 6100.476562 4231.605469 6099.824219 4282.09375 6126.734375 4321.484375 L 6289.09375 4559.175781 C 6306.226562 4584.257812 6299.78125 4618.476562 6274.703125 4635.609375 C 6249.621094 4652.742188 6215.398438 4646.296875 6198.265625 4621.21875 L 6043.085938 4394.042969 C 6035.445312 4382.859375 6023.273438 4358.28125 6023.023438 4339.105469 L 5817.785156 4623.96875 C 5807.039062 4638.882812 5790.199219 4646.820312 5773.117188 4646.820312 "/>
<path fill-rule="nonzero" fill="rgb(0%, 0%, 0%)" fill-opacity="1" d="M 6766 4646.003906 C 6735.777344 4645.613281 6711.730469 4620.417969 6711.730469 4590.191406 L 6711.730469 4443.898438 C 6711.730469 4407.5625 6711.351562 4362.867188 6734.628906 4323.628906 C 6707.636719 4321.707031 6677.703125 4310.378906 6662.644531 4286.101562 C 6662.1875 4285.363281 6661.742188 4284.609375 6661.320312 4283.851562 L 6509.734375 4011.355469 C 6494.96875 3984.8125 6504.515625 3951.324219 6531.058594 3936.558594 C 6557.605469 3921.792969 6591.089844 3931.339844 6605.855469 3957.882812 C 6625.835938 3993.792969 6645.808594 4029.703125 6665.785156 4065.613281 C 6681.65625 4094.140625 6697.527344 4122.671875 6713.398438 4151.203125 C 6720.152344 4163.339844 6726.90625 4175.476562 6733.65625 4187.617188 C 6740.527344 4199.96875 6745.304688 4213.84375 6760.980469 4216.671875 C 6762.308594 4216.910156 6763.664062 4217.0625 6765.015625 4217.113281 C 6782.214844 4217.777344 6787.820312 4204.992188 6795.707031 4192.660156 L 6816.398438 4160.296875 C 6833.339844 4133.796875 6850.28125 4107.296875 6867.226562 4080.796875 C 6893.242188 4040.101562 6919.265625 3999.402344 6945.28125 3958.707031 C 6946.074219 3957.46875 6946.867188 3956.230469 6947.65625 3954.992188 C 6964.007812 3929.421875 6997.980469 3921.929688 7023.570312 3938.253906 C 7049.160156 3954.578125 7056.6875 3988.546875 7040.390625 4014.152344 L 6860.839844 4296.242188 C 6835.25 4341.160156 6821.726562 4392.191406 6821.726562 4443.898438 L 6821.726562 4591.011719 C 6821.726562 4621.628906 6796.707031 4646.402344 6766 4646.003906 "/>
<path fill-rule="nonzero" fill="rgb(0%, 0%, 0%)" fill-opacity="1" d="M 7765.492188 4645.28125 L 7311.4375 4645.28125 C 7292.535156 4645.28125 7274.652344 4635.882812 7264.621094 4619.859375 C 7252.46875 4600.449219 7253.835938 4575.808594 7267.542969 4557.957031 L 7659.863281 4046.933594 C 7662.390625 4043.644531 7660.042969 4038.890625 7655.898438 4038.890625 L 7338.003906 4038.890625 C 7308.175781 4038.890625 7283.3125 4015.160156 7282.925781 3985.335938 C 7282.53125 3955.03125 7306.980469 3930.339844 7337.195312 3930.339844 L 7775.292969 3930.339844 C 7794.195312 3930.339844 7812.078125 3939.738281 7822.105469 3955.761719 C 7834.257812 3975.171875 7832.890625 3999.8125 7819.183594 4017.664062 L 7426.863281 4528.6875 C 7424.339844 4531.976562 7426.683594 4536.730469 7430.828125 4536.730469 L 7764.683594 4536.730469 C 7794.511719 4536.730469 7819.378906 4560.460938 7819.761719 4590.285156 C 7820.15625 4620.59375 7795.707031 4645.28125 7765.492188 4645.28125 "/>
<path fill-rule="nonzero" fill="rgb(0%, 0%, 0%)" fill-opacity="1" d="M 5767.695312 1354.476562 L 5767.707031 1354.476562 Z M 5568.9375 1656 C 5516 1656 5467.71875 1647.15625 5425.441406 1629.71875 C 5382.660156 1612.074219 5346 1585.703125 5316.480469 1551.34375 C 5288.046875 1518.246094 5266.4375 1477.90625 5252.253906 1431.441406 C 5238.78125 1387.316406 5231.949219 1337.375 5231.949219 1283.011719 C 5231.949219 1167.550781 5261.097656 1076.199219 5318.578125 1011.496094 C 5348.238281 978.109375 5385.03125 952.609375 5427.933594 935.699219 C 5469.476562 919.328125 5516.917969 911.027344 5568.9375 911.027344 C 5639.300781 911.027344 5696.480469 925.921875 5743.746094 956.566406 C 5788.402344 985.519531 5823.234375 1028.015625 5850.242188 1086.488281 C 5862.980469 1114.0625 5850.949219 1146.742188 5823.375 1159.476562 C 5815.910156 1162.925781 5808.066406 1164.558594 5800.347656 1164.558594 C 5779.5625 1164.5625 5759.671875 1152.71875 5750.386719 1132.609375 C 5732.101562 1093.027344 5710.976562 1066.414062 5683.90625 1048.863281 C 5655.011719 1030.128906 5617.40625 1021.023438 5568.9375 1021.023438 C 5494.824219 1021.023438 5438.261719 1042.394531 5400.8125 1084.546875 C 5361.753906 1128.515625 5341.945312 1195.289062 5341.945312 1283.011719 C 5341.945312 1326.484375 5347.164062 1365.617188 5357.457031 1399.324219 C 5367.171875 1431.152344 5381.457031 1458.179688 5399.914062 1479.664062 C 5437.730469 1523.683594 5494.597656 1546.003906 5568.9375 1546.003906 C 5572.070312 1546.003906 5575.480469 1545.894531 5579.09375 1545.78125 C 5583.296875 1545.648438 5587.640625 1545.511719 5592.300781 1545.511719 C 5656.476562 1545.511719 5699.796875 1529.832031 5724.738281 1497.582031 C 5747.535156 1468.101562 5758.617188 1422.042969 5758.617188 1356.773438 L 5758.617188 1356.75 C 5758.617188 1355.492188 5757.582031 1354.476562 5756.324219 1354.476562 L 5555.933594 1354.476562 C 5525.316406 1354.476562 5500.542969 1329.457031 5500.941406 1298.75 C 5501.332031 1268.523438 5526.527344 1244.480469 5556.753906 1244.480469 L 5767.625 1244.480469 C 5827.085938 1244.480469 5868.613281 1290.65625 5868.613281 1356.773438 C 5868.613281 1447.324219 5850.011719 1515.394531 5811.75 1564.871094 C 5765.242188 1625.011719 5691.40625 1655.507812 5592.300781 1655.507812 C 5589.378906 1655.507812 5586.070312 1655.609375 5582.570312 1655.722656 C 5578.460938 1655.851562 5573.808594 1656 5568.9375 1656 "/>
<path fill-rule="nonzero" fill="rgb(0%, 0%, 0%)" fill-opacity="1" d="M 3086.554688 1526.710938 C 3086.554688 1529.472656 3088.792969 1531.710938 3091.554688 1531.710938 L 3226.765625 1531.710938 C 3301.609375 1531.710938 3358.753906 1510.367188 3396.621094 1468.277344 C 3414.820312 1448.042969 3428.898438 1422.617188 3438.460938 1392.699219 C 3448.613281 1360.953125 3453.757812 1324.058594 3453.757812 1283.035156 C 3453.757812 1200.367188 3434.238281 1137.464844 3395.738281 1096.082031 C 3358.230469 1055.757812 3301.378906 1035.3125 3226.765625 1035.3125 L 3091.554688 1035.3125 C 3088.792969 1035.3125 3086.554688 1037.554688 3086.554688 1040.3125 Z M 3226.765625 1641.707031 L 3031.554688 1641.707031 C 3001.183594 1641.707031 2976.558594 1617.082031 2976.558594 1586.707031 L 2976.558594 980.316406 C 2976.558594 949.941406 3001.183594 925.316406 3031.554688 925.316406 L 3226.765625 925.316406 C 3278.496094 925.316406 3325.667969 933.203125 3366.976562 948.75 C 3409.792969 964.863281 3446.566406 989.226562 3476.277344 1021.164062 C 3505.613281 1052.699219 3527.921875 1091.511719 3542.578125 1136.515625 C 3556.628906 1179.648438 3563.753906 1228.945312 3563.753906 1283.035156 C 3563.753906 1335.441406 3556.847656 1383.605469 3543.234375 1426.191406 C 3528.898438 1471.042969 3507.082031 1509.953125 3478.394531 1541.84375 C 3448.816406 1574.726562 3412.160156 1599.929688 3369.449219 1616.753906 C 3327.40625 1633.308594 3279.402344 1641.707031 3226.765625 1641.707031 "/>
<path fill-rule="nonzero" fill="rgb(100%, 0%, 0%)" fill-opacity="1" d="M 10284.476562 3196.339844 L 10223.378906 3094.992188 C 10206.84375 3068.246094 10190.957031 3043.625 10175.707031 3021.136719 C 10230.773438 2936.597656 10276.199219 2894.476562 10330.222656 2894.476562 C 10442.449219 2894.476562 10532.234375 3058.828125 10532.234375 3260.710938 C 10532.234375 3337.660156 10506.894531 3382.3125 10454.390625 3382.3125 C 10404.066406 3382.3125 10380.027344 3349.253906 10284.476562 3196.339844 M 9951.023438 3213.683594 C 9862.671875 3351.4375 9832.109375 3382.3125 9782.917969 3382.3125 C 9732.296875 3382.3125 9702.207031 3338.105469 9702.207031 3259.28125 C 9702.207031 3090.65625 9786.738281 2918.226562 9887.507812 2918.226562 C 9942.078125 2918.226562 9987.675781 2949.574219 10057.527344 3049.03125 C 9991.203125 3150.21875 9951.023438 3213.683594 9951.023438 3213.683594 M 10337.386719 2805.652344 C 10251.9375 2805.652344 10185.144531 2869.660156 10124.679688 2950.976562 C 10041.589844 2845.746094 9972.097656 2805.652344 9888.941406 2805.652344 C 9719.398438 2805.652344 9589.5 3025.105469 9589.5 3257.382812 C 9589.5 3402.734375 9660.199219 3494.414062 9778.621094 3494.414062 C 9863.851562 3494.414062 9925.152344 3454.445312 10034.125 3264.984375 C 10034.125 3264.984375 10079.550781 3185.195312 10110.796875 3130.234375 C 10121.75 3147.820312 10133.285156 3166.769531 10145.398438 3187.082031 L 10196.5 3272.585938 C 10296.042969 3438.261719 10351.503906 3494.414062 10452.003906 3494.414062 C 10567.367188 3494.414062 10631.570312 3401.484375 10631.570312 3253.105469 C 10631.570312 3009.902344 10498.742188 2805.652344 10337.386719 2805.652344 "/>
<path fill-rule="nonzero" fill="rgb(100%, 0%, 0%)" fill-opacity="1" d="M 4077.953125 5345.570312 C 3879.15625 5345.570312 3739.773438 5161.378906 3717.371094 4970.660156 C 3715.132812 4951.605469 3732.3125 4924.992188 3761.265625 4924.992188 C 3777.683594 4924.992188 3800.339844 4932.289062 3806.269531 4955.4375 C 3854.054688 5142 3955.273438 5252.4375 4077.953125 5252.4375 C 4200.632812 5252.4375 4301.585938 5141.929688 4349.636719 4955.4375 C 4355.523438 4932.578125 4378.21875 4924.992188 4394.636719 4924.992188 C 4423.59375 4924.992188 4440.773438 4951.605469 4438.535156 4970.660156 C 4416.132812 5161.378906 4276.75 5345.570312 4077.953125 5345.570312 "/>
<path fill-rule="nonzero" fill="rgb(100%, 0%, 0%)" fill-opacity="1" d="M 4077.953125 5641.378906 C 3860.945312 5641.378906 3739.773438 5161.378906 3717.371094 4970.660156 C 3715.132812 4951.605469 3731.417969 4924.992188 3761.265625 4924.992188 C 3777.683594 4924.992188 3800.339844 4932.289062 3806.269531 4955.4375 C 3854.054688 5142 3985.71875 5521.378906 4077.953125 5521.378906 C 4170.1875 5521.378906 4301.585938 5141.933594 4349.636719 4955.4375 C 4355.523438 4932.578125 4378.21875 4924.988281 4394.636719 4924.988281 C 4424.488281 4924.988281 4440.773438 4951.605469 4438.535156 4970.660156 C 4416.132812 5161.378906 4294.957031 5641.378906 4077.953125 5641.378906 "/>
<path fill-rule="nonzero" fill="rgb(100%, 0%, 0%)" fill-opacity="1" d="M 11669.300781 2487.332031 C 11525.761719 2487.332031 11409.402344 2370.96875 11409.402344 2227.429688 C 11409.402344 2083.890625 11525.761719 1967.53125 11669.300781 1967.53125 C 11812.839844 1967.53125 11929.203125 2083.890625 11929.203125 2227.429688 C 11929.203125 2370.96875 11812.839844 2487.332031 11669.300781 2487.332031 M 11669.300781 1864.757812 C 11469.003906 1864.757812 11306.632812 2027.132812 11306.632812 2227.429688 C 11306.632812 2427.726562 11469.003906 2590.101562 11669.300781 2590.101562 C 11869.601562 2590.101562 12031.972656 2427.726562 12031.972656 2227.429688 C 12031.972656 2027.132812 11869.601562 1864.757812 11669.300781 1864.757812 "/>
</svg>
